<svg version="1.1" preserveAspectRatio="none" xmlns="http://www.w3.org/2000/svg" width="500" height="500" viewBox="0 0 500 500"><rect width="100%" height="100%" fill="#121212" fill-opacity="1"/><svg viewBox="395.3106 337.2842 359.83 56" width="333" height="51.824472667648614" x="83.5px" y="224.0878px" xmlns="http://www.w3.org/2000/svg" xmlns:xlink="http://www.w3.org/1999/xlink" preserveAspectRatio="none"><defs></defs><style>.companyName {fill:#F5F5F5;fill-opacity:1;}.icon3 {fill:#00DCFB;fill-opacity:1;}.icon3-str {stroke:#00DCFB;stroke-opacity:1;}.shapeStroke-str {stroke:#F5F5F5;stroke-opacity:1;}</style><g opacity="1" transform="rotate(0 395.3106 387.2842)">
<svg width="359.83" height="6" x="395.3106" y="387.2842" version="1.1" preserveAspectRatio="none" viewBox="0 0 359.83 6">
  <defs><rect x="0" y="0" width="359.83" height="6" rx="4%" ry="4%" id="id-UPl23ini1679541595274"></rect></defs><use class="companyName shapeStroke-str" style="stroke-width:0;" xlink:href="#id-UPl23ini1679541595274"></use>
</svg>
</g><g opacity="1" transform="rotate(0 395.3106 337.2842)">
<svg width="359.83" height="40" x="395.3106" y="337.2842" version="1.1" preserveAspectRatio="none" viewBox="1.2 -28.8 340.04 37.8">
  <g transform="matrix(1 0 0 1 0 0)" class="companyName"><path id="id-D6z1nYkh12" d="M25.56 0.20L1.88 0.20L1.88-5L24.88-4.96Q26.64-4.96 27.58-5.78Q28.52-6.60 28.52-8.44L28.52-8.44Q28.52-10.28 27.58-11.10Q26.64-11.92 24.88-11.92L24.88-11.92L10.56-11.92Q6.12-11.92 3.66-14.06Q1.20-16.20 1.20-20.36L1.20-20.36Q1.20-24.52 3.66-26.66Q6.12-28.80 10.56-28.80L10.56-28.80L33.04-28.80L33.04-23.60L11.24-23.64Q9.52-23.64 8.56-22.86Q7.60-22.08 7.60-20.36L7.60-20.36Q7.60-18.64 8.56-17.86Q9.52-17.08 11.24-17.08L11.24-17.08L25.56-17.08Q30-17.08 32.46-14.90Q34.92-12.72 34.92-8.44L34.92-8.44Q34.92-4.20 32.46-2Q30 0.20 25.56 0.20L25.56 0.20Z M44.12 0L38.32 0L38.32-28.60L44.12-28.60L44.12-20.60L56.28-20.60Q59.80-20.60 61.42-18.86Q63.04-17.12 63.04-14.28L63.04-14.28L63.04 0L57.24 0L57.24-13.60Q57.24-16 54.84-16L54.84-16L44.12-16L44.12 0Z M93.88 0L72.72 0Q69.48 0 67.76-1.64Q66.04-3.28 66.04-6.32L66.04-6.32Q66.04-9.32 67.76-10.96Q69.48-12.60 72.72-12.60L72.72-12.60L88.08-12.60L88.08-13.56Q88.08-16 85.68-16L85.68-16L68.72-16L68.72-20.60L87.20-20.60Q90.84-20.60 92.36-18.94Q93.88-17.28 93.88-14.28L93.88-14.28L93.88 0ZM73.76-4.60L73.76-4.60L88.08-4.60L88.08-8L73.76-8Q73.00-8 72.58-7.54Q72.16-7.08 72.16-6.32L72.16-6.32Q72.16-5.56 72.58-5.08Q73.00-4.60 73.76-4.60Z M104.08 9L98.28 9L98.28-20.60L113.08-20.60Q118.44-20.60 121.44-17.96Q124.44-15.32 124.44-10.32L124.44-10.32Q124.44-5.28 121.44-2.64Q118.44 0 113.08 0L113.08 0L104.08 0L104.08 9ZM113.08-16L113.08-16L104.08-16L104.08-4.60L113.08-4.60Q115.68-4.60 117.06-6.02Q118.44-7.44 118.44-10.32L118.44-10.32Q118.44-13.16 117.06-14.58Q115.68-16 113.08-16Z M154.80 0.20L138.60 0.20Q133.24 0.20 130.24-2.46Q127.24-5.12 127.24-10.28L127.24-10.28Q127.24-15.48 130.24-18.14Q133.24-20.80 138.60-20.80L138.60-20.80L148.60-20.80Q152.12-20.80 153.98-19.14Q155.84-17.48 155.84-14.40L155.84-14.40Q155.84-8.12 148.60-8.12L148.60-8.12L133.48-8.12Q134.32-4.40 138.60-4.40L138.60-4.40L154.80-4.40L154.80 0.20ZM148.32-16.20L138.60-16.20Q134.48-16.20 133.52-12.72L133.52-12.72L148.32-12.72Q149.12-12.72 149.58-13.20Q150.04-13.68 150.04-14.52L150.04-14.52Q150.04-16.20 148.32-16.20L148.32-16.20Z M196.16 0.20L188.48 0.20Q180.84 0.20 176.64-3.46Q172.44-7.12 172.44-14.32L172.44-14.32Q172.44-21.48 176.64-25.14Q180.84-28.80 188.76-28.80L188.76-28.80L195.96-28.80Q203.88-28.80 208.08-25.14Q212.28-21.48 212.28-14.32L212.28-14.32Q212.28-7.12 208.08-3.46Q203.88 0.20 196.16 0.20L196.16 0.20ZM195.52-23.60L189.20-23.60Q184.76-23.60 182.28-22Q179.80-20.40 179.16-16.92L179.16-16.92L205.56-16.92Q204.92-20.40 202.44-22Q199.96-23.60 195.52-23.60L195.52-23.60ZM189.32-5L189.32-5L195.52-5Q200.00-5 202.46-6.60Q204.92-8.20 205.56-11.72L205.56-11.72L179.16-11.72Q179.80-8.20 182.28-6.60Q184.76-5 189.32-5Z M226.04 0L220.24 0L220.24-16L214.28-16L214.28-20.60L220.24-20.60L220.24-22.20Q220.24-25.04 221.88-26.78Q223.52-28.52 227-28.52L227-28.52L235.72-28.52L235.72-23.92L228.44-23.92Q226.04-23.92 226.04-21.48L226.04-21.48L226.04-20.60L234.60-20.60L234.60-16L226.04-16L226.04 0Z M271.72 0L265.28 0L265.28-10.20L250.12-28.60L258.04-28.60L268.48-15.64L278.88-28.60L286.80-28.60L271.72-10.24L271.72 0Z M301.76 0.20L294.36 0.20Q289 0.20 286-2.46Q283-5.12 283-10.28L283-10.28Q283-15.48 286-18.14Q289-20.80 294.36-20.80L294.36-20.80L301.76-20.80Q307.12-20.80 310.12-18.14Q313.12-15.48 313.12-10.28L313.12-10.28Q313.12-5.12 310.12-2.46Q307.12 0.20 301.76 0.20L301.76 0.20ZM294.36-4.40L294.36-4.40L301.76-4.40Q304.36-4.40 305.74-5.84Q307.12-7.28 307.12-10.28L307.12-10.28Q307.12-13.32 305.74-14.76Q304.36-16.20 301.76-16.20L301.76-16.20L294.36-16.20Q291.76-16.20 290.38-14.76Q289-13.32 289-10.28L289-10.28Q289-7.28 290.38-5.84Q291.76-4.40 294.36-4.40Z M334.48 0L323.28 0Q319.76 0 318.14-1.76Q316.52-3.52 316.52-6.32L316.52-6.32L316.52-20.60L322.32-20.60L322.32-7Q322.32-4.60 324.72-4.60L324.72-4.60L333.04-4.60Q335.44-4.60 335.44-7L335.44-7L335.44-20.60L341.24-20.60L341.24-6.32Q341.24-3.52 339.62-1.76Q338.00 0 334.48 0L334.48 0Z"/></g>
</svg>
</g><g opacity="1" transform="rotate(0 395.3106 387.2842)">
<svg width="79.1626" height="6" x="395.3106" y="387.2842" version="1.1" preserveAspectRatio="none" viewBox="0 0 79.1626 6">
  <defs><rect x="0" y="0" width="79.1626" height="6" rx="0px" ry="0px" id="id-o0jQam8yd1679541595274"></rect></defs><use class="icon3 shapeStroke-str" style="stroke-width:0;" xlink:href="#id-o0jQam8yd1679541595274"></use>
</svg>
</g></svg></svg>
