<svg version="1.1" preserveAspectRatio="none" xmlns="http://www.w3.org/2000/svg" width="500" height="500" viewBox="0 0 500 500"><rect width="100%" height="100%" fill="#121212" fill-opacity="1"/><svg viewBox="30.8923 82.2601 382.8067 241.4407" width="333" height="210.02702695642475" x="83.5px" y="144.9865px" xmlns="http://www.w3.org/2000/svg" xmlns:xlink="http://www.w3.org/1999/xlink" preserveAspectRatio="none"><defs></defs><style>.companyName {fill:#E3E3E3;fill-opacity:1;}.icon1 {fill:#F1EC40;fill-opacity:1;}.icon2 {fill:#555555;fill-opacity:1;}.icon3 {fill:#AAAAAA;fill-opacity:1;}.icon3-str {stroke:#AAAAAA;stroke-opacity:1;}</style><g opacity="1" transform="rotate(0 30.8923 291.7008)">
<svg width="382.8067" height="32" x="30.8923" y="291.7008" version="1.1" preserveAspectRatio="none" viewBox="1.875 -28.3984 344.3945 28.7891">
  <g transform="matrix(1 0 0 1 0 0)" class="companyName"><path id="id-D6z1nYkh12" d="M29.86-8.24L29.86-8.24Q29.86-6.74 29.48-5.54Q29.10-4.34 28.48-3.42Q27.85-2.50 27.01-1.86Q26.17-1.21 25.27-0.80Q24.38-0.39 23.45-0.20Q22.52 0 21.70 0L21.70 0L2.11 0L2.11-5.08L21.70-5.08Q23.16-5.08 23.97-5.94Q24.79-6.80 24.79-8.24L24.79-8.24Q24.79-8.95 24.57-9.53Q24.36-10.12 23.96-10.55Q23.55-10.98 22.98-11.21Q22.40-11.45 21.70-11.45L21.70-11.45L10.02-11.45Q8.79-11.45 7.36-11.88Q5.94-12.32 4.72-13.30Q3.50-14.28 2.69-15.86Q1.88-17.44 1.88-19.73L1.88-19.73Q1.88-22.01 2.69-23.58Q3.50-25.16 4.72-26.14Q5.94-27.13 7.36-27.57Q8.79-28.01 10.02-28.01L10.02-28.01L27.30-28.01L27.30-22.93L10.02-22.93Q8.57-22.93 7.76-22.05Q6.95-21.17 6.95-19.73L6.95-19.73Q6.95-18.26 7.76-17.41Q8.57-16.56 10.02-16.56L10.02-16.56L21.70-16.56L21.74-16.56Q22.56-16.54 23.48-16.34Q24.39-16.13 25.30-15.70Q26.21-15.27 27.03-14.62Q27.85-13.96 28.49-13.05Q29.12-12.13 29.49-10.94Q29.86-9.75 29.86-8.24Z M39.20-28.01L39.20-16.56L57.03-16.56L57.03-28.01L62.11-28.01L62.11 0L57.03 0L57.03-11.45L39.20-11.45L39.20 0L34.12 0L34.12-28.01L39.20-28.01Z M95.53-25.45L95.53 0L90.45 0L90.45-6.88L72.60-6.88L72.60 0L67.52 0L67.52-14.00Q67.52-17.07 68.57-19.65Q69.63-22.23 71.50-24.08Q73.38-25.94 75.94-26.97Q78.50-28.01 81.52-28.01L81.52-28.01L92.97-28.01Q93.50-28.01 93.96-27.81Q94.43-27.62 94.79-27.27Q95.14-26.91 95.33-26.45Q95.53-25.98 95.53-25.45L95.53-25.45ZM72.60-14.00L72.60-11.95L90.45-11.95L90.45-22.93L81.52-22.93Q81.29-22.93 80.54-22.86Q79.79-22.79 78.80-22.52Q77.81-22.25 76.72-21.68Q75.63-21.11 74.71-20.12Q73.79-19.12 73.19-17.63Q72.60-16.13 72.60-14.00L72.60-14.00Z M129.34-18.59L129.34-16.29Q129.34-14.55 128.91-13.18Q128.48-11.82 127.74-10.77Q127.01-9.73 126.05-8.98Q125.10-8.24 124.05-7.77Q123.01-7.30 121.94-7.09Q120.88-6.88 119.94-6.88L119.94-6.88L108.46-6.88L108.46-11.95L119.94-11.95Q120.92-12.03 121.71-12.35Q122.50-12.68 123.07-13.22Q123.63-13.77 123.95-14.54Q124.26-15.31 124.26-16.29L124.26-16.29L124.26-18.59Q124.16-19.55 123.85-20.35Q123.54-21.15 123.00-21.72Q122.46-22.29 121.70-22.61Q120.94-22.93 119.94-22.93L119.94-22.93L108.50-22.93Q107.48-22.93 106.95-22.40Q106.43-21.88 106.43-20.88L106.43-20.88L106.43 0L101.35 0L101.35-20.88Q101.35-22.83 102.06-24.20Q102.77-25.57 103.84-26.41Q104.90-27.25 106.15-27.63Q107.40-28.01 108.46-28.01L108.46-28.01L119.94-28.01Q121.66-28.01 123.03-27.57Q124.39-27.13 125.44-26.40Q126.48-25.66 127.22-24.71Q127.95-23.75 128.43-22.71Q128.91-21.66 129.12-20.60Q129.34-19.53 129.34-18.59L129.34-18.59Z M156.70-16.56L156.70-11.45L140.66-11.45L140.66-16.56L156.70-16.56ZM158.98-5.08L158.98 0L140.66 0Q139.61 0 138.36-0.37Q137.11-0.74 136.04-1.59Q134.98-2.44 134.27-3.80Q133.55-5.16 133.55-7.13L133.55-7.13L133.55-25.45Q133.55-25.98 133.75-26.45Q133.95-26.91 134.29-27.27Q134.63-27.62 135.10-27.81Q135.57-28.01 136.11-28.01L136.11-28.01L158.98-28.01L158.98-22.93L138.63-22.93L138.63-7.13Q138.63-6.13 139.16-5.61Q139.69-5.08 140.70-5.08L140.70-5.08L158.98-5.08Z M206.29-16.68L206.29-11.33Q206.29-8.77 205.41-6.62Q204.53-4.47 202.97-2.91Q201.41-1.35 199.27-0.48Q197.13 0.39 194.61 0.39L194.61 0.39L187.73 0.39Q185.21 0.39 183.07-0.48Q180.92-1.35 179.36-2.91Q177.79-4.47 176.90-6.62Q176.02-8.77 176.02-11.33L176.02-11.33L176.02-16.68Q176.02-19.22 176.90-21.38Q177.79-23.54 179.36-25.09Q180.92-26.64 183.07-27.52Q185.21-28.40 187.73-28.40L187.73-28.40L194.61-28.40Q197.13-28.40 199.27-27.52Q201.41-26.64 202.97-25.09Q204.53-23.54 205.41-21.38Q206.29-19.22 206.29-16.68L206.29-16.68ZM201.21-11.33L201.21-16.68Q201.21-18.18 200.73-19.40Q200.25-20.63 199.38-21.49Q198.52-22.36 197.29-22.84Q196.07-23.32 194.61-23.32L194.61-23.32L187.73-23.32Q186.25-23.32 185.03-22.84Q183.81-22.36 182.93-21.49Q182.05-20.63 181.57-19.40Q181.09-18.18 181.09-16.68L181.09-16.68L181.09-11.33Q181.09-9.82 181.57-8.60Q182.05-7.38 182.93-6.51Q183.81-5.64 185.03-5.17Q186.25-4.69 187.73-4.69L187.73-4.69L194.57-4.69Q196.05-4.69 197.28-5.17Q198.50-5.64 199.38-6.51Q200.25-7.38 200.73-8.60Q201.21-9.82 201.21-11.33L201.21-11.33Z M234.47-16.56L234.47-11.45L218.42-11.45L218.42-16.56L234.47-16.56ZM236.74-28.01L236.74-22.93L216.39-22.93L216.39 0L211.31 0L211.31-25.45Q211.31-25.98 211.50-26.45Q211.70-26.91 212.04-27.27Q212.38-27.62 212.85-27.81Q213.32-28.01 213.87-28.01L213.87-28.01L236.74-28.01Z M279.84-28.01L279.84-18.63Q279.84-16.89 279.40-15.53Q278.96-14.16 278.24-13.12Q277.52-12.07 276.55-11.33Q275.59-10.59 274.55-10.11Q273.52-9.63 272.45-9.41Q271.39-9.20 270.45-9.20L270.45-9.20L268.40-9.20L268.40 0L263.28 0L263.28-9.20L261.25-9.20Q260.31-9.20 259.25-9.41Q258.18-9.63 257.14-10.11Q256.09-10.59 255.14-11.33Q254.18-12.07 253.45-13.12Q252.71-14.16 252.28-15.54Q251.84-16.91 251.84-18.63L251.84-18.63L251.84-28.01L256.91-28.01L256.91-18.63Q256.91-17.64 257.23-16.85Q257.54-16.05 258.11-15.49Q258.67-14.92 259.48-14.62Q260.29-14.32 261.29-14.32L261.29-14.32L270.45-14.32Q271.17-14.43 271.93-14.62Q272.70-14.80 273.32-15.25Q273.95-15.70 274.36-16.50Q274.77-17.30 274.77-18.63L274.77-18.63L274.77-28.01L279.84-28.01Z M313.81-16.68L313.81-11.33Q313.81-8.77 312.93-6.62Q312.05-4.47 310.49-2.91Q308.93-1.35 306.79-0.48Q304.65 0.39 302.13 0.39L302.13 0.39L295.25 0.39Q292.73 0.39 290.59-0.48Q288.44-1.35 286.88-2.91Q285.31-4.47 284.42-6.62Q283.54-8.77 283.54-11.33L283.54-11.33L283.54-16.68Q283.54-19.22 284.42-21.38Q285.31-23.54 286.88-25.09Q288.44-26.64 290.59-27.52Q292.73-28.40 295.25-28.40L295.25-28.40L302.13-28.40Q304.65-28.40 306.79-27.52Q308.93-26.64 310.49-25.09Q312.05-23.54 312.93-21.38Q313.81-19.22 313.81-16.68L313.81-16.68ZM308.73-11.33L308.73-16.68Q308.73-18.18 308.25-19.40Q307.77-20.63 306.90-21.49Q306.04-22.36 304.81-22.84Q303.59-23.32 302.13-23.32L302.13-23.32L295.25-23.32Q293.77-23.32 292.55-22.84Q291.33-22.36 290.45-21.49Q289.57-20.63 289.09-19.40Q288.61-18.18 288.61-16.68L288.61-16.68L288.61-11.33Q288.61-9.82 289.09-8.60Q289.57-7.38 290.45-6.51Q291.33-5.64 292.55-5.17Q293.77-4.69 295.25-4.69L295.25-4.69L302.09-4.69Q303.57-4.69 304.79-5.17Q306.02-5.64 306.89-6.51Q307.77-7.38 308.25-8.60Q308.73-9.82 308.73-11.33L308.73-11.33Z M346.27-28.01L346.27-2.56Q346.27-2.01 346.07-1.54Q345.88-1.07 345.53-0.73Q345.18-0.39 344.71-0.20Q344.24 0 343.71 0L343.71 0L332.27 0Q330.64 0 328.98-0.35Q327.32-0.70 325.77-1.44Q324.22-2.17 322.85-3.30Q321.48-4.43 320.46-5.99Q319.43-7.54 318.85-9.54Q318.26-11.54 318.26-14.00L318.26-14.00L318.26-28.01L323.34-28.01L323.34-14.00Q323.34-11.86 323.94-10.37Q324.53-8.89 325.45-7.89Q326.37-6.89 327.46-6.33Q328.55-5.76 329.54-5.49Q330.53-5.21 331.28-5.15Q332.03-5.08 332.27-5.08L332.27-5.08L341.19-5.08L341.19-28.01L346.27-28.01Z"/></g>
</svg>
</g><g opacity="1" transform="rotate(0 126.5939 82.2601)">
<svg width="191.4035" height="179.4407" x="126.5939" y="82.2601" version="1.1" preserveAspectRatio="none" viewBox="20 25 160 150">
  <g transform="matrix(1 0 0 1 0 0)" ><g><path d="M179.9 37.2L159 49.3l-.3-.2v67.4l-37.9 21.9V70.9L99.6 83.1V175l.3-.2v.2l79.6-46v-.1l-20.8-12 21.2 12.2V37.2z" data-color="1" class="icon1"></path><path d="M62.1 37.2l-21 12.1-.3-.2.3.2v67.4l37.3 21.6v-23.9L62.1 105V37.2z" data-color="1" class="icon1"></path><path d="M180 37.2L158.9 25l-21 12.1L159 49.3l21-12.1z" data-color="2" class="icon2"></path><path d="M62.2 37.2L41 25 20 37.1l21.1 12.2 21.1-12.1z" data-color="2" class="icon2"></path><path d="M78.5 138.4l-37.3-21.6V49.4L20 37.2v91.9l21.2 12.2L99.6 175v-.1l.1.1V83.1L78.5 70.9v67.5z" data-color="2" class="icon2"></path><path d="M78.5 70.8L99.7 83l21-12.1-21.1-12.2-21.1 12.1z" data-color="2" class="icon2"></path><path d="M158.7 49.2l-20.9-12.1v67.5l-17 9.8v24l37.9-21.9V49.2z" data-color="2" class="icon2"></path><path d="M159 141.3v-.4l-.4.2c.1 0 .4.2.4.2z" data-color="2" class="icon2"></path></g></g>
</svg>
</g></svg></svg>